%TF.GenerationSoftware,KiCad,Pcbnew,10.0.1*%
%TF.CreationDate,2026-08-20T14:06:56+02:00*%
%TF.ProjectId,SpeleoFox,5370656c-656f-4466-9f78-2e6b69636164,rev?*%
%TF.SameCoordinates,Original*%
%TF.FileFunction,Legend,Top*%
%TF.FilePolarity,Positive*%
%FSLAX46Y46*%
G04 Gerber Fmt 4.6, Leading zero omitted, Abs format (unit mm)*
G04 Created by KiCad (PCBNEW 10.0.1) date 2026-08-20 14:06:56*
%MOMM*%
%LPD*%
G01*
G04 APERTURE LIST*
%ADD10C,0.300000*%
%ADD11C,0.625000*%
%ADD12C,0.150000*%
%ADD13C,0.120000*%
G04 APERTURE END LIST*
D10*
X43429400Y-125216917D02*
X43500828Y-125002632D01*
X43500828Y-125002632D02*
X43500828Y-124645489D01*
X43500828Y-124645489D02*
X43429400Y-124502632D01*
X43429400Y-124502632D02*
X43357971Y-124431203D01*
X43357971Y-124431203D02*
X43215114Y-124359774D01*
X43215114Y-124359774D02*
X43072257Y-124359774D01*
X43072257Y-124359774D02*
X42929400Y-124431203D01*
X42929400Y-124431203D02*
X42857971Y-124502632D01*
X42857971Y-124502632D02*
X42786542Y-124645489D01*
X42786542Y-124645489D02*
X42715114Y-124931203D01*
X42715114Y-124931203D02*
X42643685Y-125074060D01*
X42643685Y-125074060D02*
X42572257Y-125145489D01*
X42572257Y-125145489D02*
X42429400Y-125216917D01*
X42429400Y-125216917D02*
X42286542Y-125216917D01*
X42286542Y-125216917D02*
X42143685Y-125145489D01*
X42143685Y-125145489D02*
X42072257Y-125074060D01*
X42072257Y-125074060D02*
X42000828Y-124931203D01*
X42000828Y-124931203D02*
X42000828Y-124574060D01*
X42000828Y-124574060D02*
X42072257Y-124359774D01*
X42500828Y-123716918D02*
X44000828Y-123716918D01*
X42572257Y-123716918D02*
X42500828Y-123574061D01*
X42500828Y-123574061D02*
X42500828Y-123288346D01*
X42500828Y-123288346D02*
X42572257Y-123145489D01*
X42572257Y-123145489D02*
X42643685Y-123074061D01*
X42643685Y-123074061D02*
X42786542Y-123002632D01*
X42786542Y-123002632D02*
X43215114Y-123002632D01*
X43215114Y-123002632D02*
X43357971Y-123074061D01*
X43357971Y-123074061D02*
X43429400Y-123145489D01*
X43429400Y-123145489D02*
X43500828Y-123288346D01*
X43500828Y-123288346D02*
X43500828Y-123574061D01*
X43500828Y-123574061D02*
X43429400Y-123716918D01*
X43429400Y-121788346D02*
X43500828Y-121931203D01*
X43500828Y-121931203D02*
X43500828Y-122216918D01*
X43500828Y-122216918D02*
X43429400Y-122359775D01*
X43429400Y-122359775D02*
X43286542Y-122431203D01*
X43286542Y-122431203D02*
X42715114Y-122431203D01*
X42715114Y-122431203D02*
X42572257Y-122359775D01*
X42572257Y-122359775D02*
X42500828Y-122216918D01*
X42500828Y-122216918D02*
X42500828Y-121931203D01*
X42500828Y-121931203D02*
X42572257Y-121788346D01*
X42572257Y-121788346D02*
X42715114Y-121716918D01*
X42715114Y-121716918D02*
X42857971Y-121716918D01*
X42857971Y-121716918D02*
X43000828Y-122431203D01*
X43500828Y-120859775D02*
X43429400Y-121002632D01*
X43429400Y-121002632D02*
X43286542Y-121074061D01*
X43286542Y-121074061D02*
X42000828Y-121074061D01*
X43429400Y-119716918D02*
X43500828Y-119859775D01*
X43500828Y-119859775D02*
X43500828Y-120145490D01*
X43500828Y-120145490D02*
X43429400Y-120288347D01*
X43429400Y-120288347D02*
X43286542Y-120359775D01*
X43286542Y-120359775D02*
X42715114Y-120359775D01*
X42715114Y-120359775D02*
X42572257Y-120288347D01*
X42572257Y-120288347D02*
X42500828Y-120145490D01*
X42500828Y-120145490D02*
X42500828Y-119859775D01*
X42500828Y-119859775D02*
X42572257Y-119716918D01*
X42572257Y-119716918D02*
X42715114Y-119645490D01*
X42715114Y-119645490D02*
X42857971Y-119645490D01*
X42857971Y-119645490D02*
X43000828Y-120359775D01*
X43500828Y-118788347D02*
X43429400Y-118931204D01*
X43429400Y-118931204D02*
X43357971Y-119002633D01*
X43357971Y-119002633D02*
X43215114Y-119074061D01*
X43215114Y-119074061D02*
X42786542Y-119074061D01*
X42786542Y-119074061D02*
X42643685Y-119002633D01*
X42643685Y-119002633D02*
X42572257Y-118931204D01*
X42572257Y-118931204D02*
X42500828Y-118788347D01*
X42500828Y-118788347D02*
X42500828Y-118574061D01*
X42500828Y-118574061D02*
X42572257Y-118431204D01*
X42572257Y-118431204D02*
X42643685Y-118359776D01*
X42643685Y-118359776D02*
X42786542Y-118288347D01*
X42786542Y-118288347D02*
X43215114Y-118288347D01*
X43215114Y-118288347D02*
X43357971Y-118359776D01*
X43357971Y-118359776D02*
X43429400Y-118431204D01*
X43429400Y-118431204D02*
X43500828Y-118574061D01*
X43500828Y-118574061D02*
X43500828Y-118788347D01*
X42715114Y-117145490D02*
X42715114Y-117645490D01*
X43500828Y-117645490D02*
X42000828Y-117645490D01*
X42000828Y-117645490D02*
X42000828Y-116931204D01*
X43500828Y-116145490D02*
X43429400Y-116288347D01*
X43429400Y-116288347D02*
X43357971Y-116359776D01*
X43357971Y-116359776D02*
X43215114Y-116431204D01*
X43215114Y-116431204D02*
X42786542Y-116431204D01*
X42786542Y-116431204D02*
X42643685Y-116359776D01*
X42643685Y-116359776D02*
X42572257Y-116288347D01*
X42572257Y-116288347D02*
X42500828Y-116145490D01*
X42500828Y-116145490D02*
X42500828Y-115931204D01*
X42500828Y-115931204D02*
X42572257Y-115788347D01*
X42572257Y-115788347D02*
X42643685Y-115716919D01*
X42643685Y-115716919D02*
X42786542Y-115645490D01*
X42786542Y-115645490D02*
X43215114Y-115645490D01*
X43215114Y-115645490D02*
X43357971Y-115716919D01*
X43357971Y-115716919D02*
X43429400Y-115788347D01*
X43429400Y-115788347D02*
X43500828Y-115931204D01*
X43500828Y-115931204D02*
X43500828Y-116145490D01*
X43500828Y-115145490D02*
X42500828Y-114359776D01*
X42500828Y-115145490D02*
X43500828Y-114359776D01*
X42500828Y-112788347D02*
X43500828Y-112431204D01*
X43500828Y-112431204D02*
X42500828Y-112074061D01*
X42000828Y-111216918D02*
X42000828Y-111074061D01*
X42000828Y-111074061D02*
X42072257Y-110931204D01*
X42072257Y-110931204D02*
X42143685Y-110859776D01*
X42143685Y-110859776D02*
X42286542Y-110788347D01*
X42286542Y-110788347D02*
X42572257Y-110716918D01*
X42572257Y-110716918D02*
X42929400Y-110716918D01*
X42929400Y-110716918D02*
X43215114Y-110788347D01*
X43215114Y-110788347D02*
X43357971Y-110859776D01*
X43357971Y-110859776D02*
X43429400Y-110931204D01*
X43429400Y-110931204D02*
X43500828Y-111074061D01*
X43500828Y-111074061D02*
X43500828Y-111216918D01*
X43500828Y-111216918D02*
X43429400Y-111359776D01*
X43429400Y-111359776D02*
X43357971Y-111431204D01*
X43357971Y-111431204D02*
X43215114Y-111502633D01*
X43215114Y-111502633D02*
X42929400Y-111574061D01*
X42929400Y-111574061D02*
X42572257Y-111574061D01*
X42572257Y-111574061D02*
X42286542Y-111502633D01*
X42286542Y-111502633D02*
X42143685Y-111431204D01*
X42143685Y-111431204D02*
X42072257Y-111359776D01*
X42072257Y-111359776D02*
X42000828Y-111216918D01*
X43357971Y-110074062D02*
X43429400Y-110002633D01*
X43429400Y-110002633D02*
X43500828Y-110074062D01*
X43500828Y-110074062D02*
X43429400Y-110145490D01*
X43429400Y-110145490D02*
X43357971Y-110074062D01*
X43357971Y-110074062D02*
X43500828Y-110074062D01*
X43500828Y-108574061D02*
X43500828Y-109431204D01*
X43500828Y-109002633D02*
X42000828Y-109002633D01*
X42000828Y-109002633D02*
X42215114Y-109145490D01*
X42215114Y-109145490D02*
X42357971Y-109288347D01*
X42357971Y-109288347D02*
X42429400Y-109431204D01*
D11*
X121201660Y-127650833D02*
X125011184Y-127650833D01*
X123106422Y-129555595D02*
X123106422Y-125746071D01*
D12*
X64538095Y-128604819D02*
X64538095Y-129414342D01*
X64538095Y-129414342D02*
X64585714Y-129509580D01*
X64585714Y-129509580D02*
X64633333Y-129557200D01*
X64633333Y-129557200D02*
X64728571Y-129604819D01*
X64728571Y-129604819D02*
X64919047Y-129604819D01*
X64919047Y-129604819D02*
X65014285Y-129557200D01*
X65014285Y-129557200D02*
X65061904Y-129509580D01*
X65061904Y-129509580D02*
X65109523Y-129414342D01*
X65109523Y-129414342D02*
X65109523Y-128604819D01*
X65490476Y-128604819D02*
X66109523Y-128604819D01*
X66109523Y-128604819D02*
X65776190Y-128985771D01*
X65776190Y-128985771D02*
X65919047Y-128985771D01*
X65919047Y-128985771D02*
X66014285Y-129033390D01*
X66014285Y-129033390D02*
X66061904Y-129081009D01*
X66061904Y-129081009D02*
X66109523Y-129176247D01*
X66109523Y-129176247D02*
X66109523Y-129414342D01*
X66109523Y-129414342D02*
X66061904Y-129509580D01*
X66061904Y-129509580D02*
X66014285Y-129557200D01*
X66014285Y-129557200D02*
X65919047Y-129604819D01*
X65919047Y-129604819D02*
X65633333Y-129604819D01*
X65633333Y-129604819D02*
X65538095Y-129557200D01*
X65538095Y-129557200D02*
X65490476Y-129509580D01*
X69261905Y-108554819D02*
X69261905Y-107554819D01*
X69261905Y-107554819D02*
X69500000Y-107554819D01*
X69500000Y-107554819D02*
X69642857Y-107602438D01*
X69642857Y-107602438D02*
X69738095Y-107697676D01*
X69738095Y-107697676D02*
X69785714Y-107792914D01*
X69785714Y-107792914D02*
X69833333Y-107983390D01*
X69833333Y-107983390D02*
X69833333Y-108126247D01*
X69833333Y-108126247D02*
X69785714Y-108316723D01*
X69785714Y-108316723D02*
X69738095Y-108411961D01*
X69738095Y-108411961D02*
X69642857Y-108507200D01*
X69642857Y-108507200D02*
X69500000Y-108554819D01*
X69500000Y-108554819D02*
X69261905Y-108554819D01*
X70166667Y-107554819D02*
X70785714Y-107554819D01*
X70785714Y-107554819D02*
X70452381Y-107935771D01*
X70452381Y-107935771D02*
X70595238Y-107935771D01*
X70595238Y-107935771D02*
X70690476Y-107983390D01*
X70690476Y-107983390D02*
X70738095Y-108031009D01*
X70738095Y-108031009D02*
X70785714Y-108126247D01*
X70785714Y-108126247D02*
X70785714Y-108364342D01*
X70785714Y-108364342D02*
X70738095Y-108459580D01*
X70738095Y-108459580D02*
X70690476Y-108507200D01*
X70690476Y-108507200D02*
X70595238Y-108554819D01*
X70595238Y-108554819D02*
X70309524Y-108554819D01*
X70309524Y-108554819D02*
X70214286Y-108507200D01*
X70214286Y-108507200D02*
X70166667Y-108459580D01*
X52633333Y-115224819D02*
X52300000Y-114748628D01*
X52061905Y-115224819D02*
X52061905Y-114224819D01*
X52061905Y-114224819D02*
X52442857Y-114224819D01*
X52442857Y-114224819D02*
X52538095Y-114272438D01*
X52538095Y-114272438D02*
X52585714Y-114320057D01*
X52585714Y-114320057D02*
X52633333Y-114415295D01*
X52633333Y-114415295D02*
X52633333Y-114558152D01*
X52633333Y-114558152D02*
X52585714Y-114653390D01*
X52585714Y-114653390D02*
X52538095Y-114701009D01*
X52538095Y-114701009D02*
X52442857Y-114748628D01*
X52442857Y-114748628D02*
X52061905Y-114748628D01*
X52966667Y-114224819D02*
X53633333Y-114224819D01*
X53633333Y-114224819D02*
X53204762Y-115224819D01*
X112094853Y-105051009D02*
X112237710Y-105098628D01*
X112237710Y-105098628D02*
X112285329Y-105146247D01*
X112285329Y-105146247D02*
X112332948Y-105241485D01*
X112332948Y-105241485D02*
X112332948Y-105384342D01*
X112332948Y-105384342D02*
X112285329Y-105479580D01*
X112285329Y-105479580D02*
X112237710Y-105527200D01*
X112237710Y-105527200D02*
X112142472Y-105574819D01*
X112142472Y-105574819D02*
X111761520Y-105574819D01*
X111761520Y-105574819D02*
X111761520Y-104574819D01*
X111761520Y-104574819D02*
X112094853Y-104574819D01*
X112094853Y-104574819D02*
X112190091Y-104622438D01*
X112190091Y-104622438D02*
X112237710Y-104670057D01*
X112237710Y-104670057D02*
X112285329Y-104765295D01*
X112285329Y-104765295D02*
X112285329Y-104860533D01*
X112285329Y-104860533D02*
X112237710Y-104955771D01*
X112237710Y-104955771D02*
X112190091Y-105003390D01*
X112190091Y-105003390D02*
X112094853Y-105051009D01*
X112094853Y-105051009D02*
X111761520Y-105051009D01*
X112618663Y-104574819D02*
X113190091Y-104574819D01*
X112904377Y-105574819D02*
X112904377Y-104574819D01*
X114047234Y-105574819D02*
X113475806Y-105574819D01*
X113761520Y-105574819D02*
X113761520Y-104574819D01*
X113761520Y-104574819D02*
X113666282Y-104717676D01*
X113666282Y-104717676D02*
X113571044Y-104812914D01*
X113571044Y-104812914D02*
X113475806Y-104860533D01*
X96129580Y-111604166D02*
X96177200Y-111651785D01*
X96177200Y-111651785D02*
X96224819Y-111794642D01*
X96224819Y-111794642D02*
X96224819Y-111889880D01*
X96224819Y-111889880D02*
X96177200Y-112032737D01*
X96177200Y-112032737D02*
X96081961Y-112127975D01*
X96081961Y-112127975D02*
X95986723Y-112175594D01*
X95986723Y-112175594D02*
X95796247Y-112223213D01*
X95796247Y-112223213D02*
X95653390Y-112223213D01*
X95653390Y-112223213D02*
X95462914Y-112175594D01*
X95462914Y-112175594D02*
X95367676Y-112127975D01*
X95367676Y-112127975D02*
X95272438Y-112032737D01*
X95272438Y-112032737D02*
X95224819Y-111889880D01*
X95224819Y-111889880D02*
X95224819Y-111794642D01*
X95224819Y-111794642D02*
X95272438Y-111651785D01*
X95272438Y-111651785D02*
X95320057Y-111604166D01*
X96224819Y-110651785D02*
X96224819Y-111223213D01*
X96224819Y-110937499D02*
X95224819Y-110937499D01*
X95224819Y-110937499D02*
X95367676Y-111032737D01*
X95367676Y-111032737D02*
X95462914Y-111127975D01*
X95462914Y-111127975D02*
X95510533Y-111223213D01*
X97066666Y-113499819D02*
X97066666Y-114214104D01*
X97066666Y-114214104D02*
X97019047Y-114356961D01*
X97019047Y-114356961D02*
X96923809Y-114452200D01*
X96923809Y-114452200D02*
X96780952Y-114499819D01*
X96780952Y-114499819D02*
X96685714Y-114499819D01*
X97447619Y-113499819D02*
X98066666Y-113499819D01*
X98066666Y-113499819D02*
X97733333Y-113880771D01*
X97733333Y-113880771D02*
X97876190Y-113880771D01*
X97876190Y-113880771D02*
X97971428Y-113928390D01*
X97971428Y-113928390D02*
X98019047Y-113976009D01*
X98019047Y-113976009D02*
X98066666Y-114071247D01*
X98066666Y-114071247D02*
X98066666Y-114309342D01*
X98066666Y-114309342D02*
X98019047Y-114404580D01*
X98019047Y-114404580D02*
X97971428Y-114452200D01*
X97971428Y-114452200D02*
X97876190Y-114499819D01*
X97876190Y-114499819D02*
X97590476Y-114499819D01*
X97590476Y-114499819D02*
X97495238Y-114452200D01*
X97495238Y-114452200D02*
X97447619Y-114404580D01*
X82633333Y-114924819D02*
X82300000Y-114448628D01*
X82061905Y-114924819D02*
X82061905Y-113924819D01*
X82061905Y-113924819D02*
X82442857Y-113924819D01*
X82442857Y-113924819D02*
X82538095Y-113972438D01*
X82538095Y-113972438D02*
X82585714Y-114020057D01*
X82585714Y-114020057D02*
X82633333Y-114115295D01*
X82633333Y-114115295D02*
X82633333Y-114258152D01*
X82633333Y-114258152D02*
X82585714Y-114353390D01*
X82585714Y-114353390D02*
X82538095Y-114401009D01*
X82538095Y-114401009D02*
X82442857Y-114448628D01*
X82442857Y-114448628D02*
X82061905Y-114448628D01*
X82966667Y-113924819D02*
X83585714Y-113924819D01*
X83585714Y-113924819D02*
X83252381Y-114305771D01*
X83252381Y-114305771D02*
X83395238Y-114305771D01*
X83395238Y-114305771D02*
X83490476Y-114353390D01*
X83490476Y-114353390D02*
X83538095Y-114401009D01*
X83538095Y-114401009D02*
X83585714Y-114496247D01*
X83585714Y-114496247D02*
X83585714Y-114734342D01*
X83585714Y-114734342D02*
X83538095Y-114829580D01*
X83538095Y-114829580D02*
X83490476Y-114877200D01*
X83490476Y-114877200D02*
X83395238Y-114924819D01*
X83395238Y-114924819D02*
X83109524Y-114924819D01*
X83109524Y-114924819D02*
X83014286Y-114877200D01*
X83014286Y-114877200D02*
X82966667Y-114829580D01*
X81438095Y-126004819D02*
X81438095Y-125004819D01*
X81438095Y-125481009D02*
X82009523Y-125481009D01*
X82009523Y-126004819D02*
X82009523Y-125004819D01*
X82438095Y-125100057D02*
X82485714Y-125052438D01*
X82485714Y-125052438D02*
X82580952Y-125004819D01*
X82580952Y-125004819D02*
X82819047Y-125004819D01*
X82819047Y-125004819D02*
X82914285Y-125052438D01*
X82914285Y-125052438D02*
X82961904Y-125100057D01*
X82961904Y-125100057D02*
X83009523Y-125195295D01*
X83009523Y-125195295D02*
X83009523Y-125290533D01*
X83009523Y-125290533D02*
X82961904Y-125433390D01*
X82961904Y-125433390D02*
X82390476Y-126004819D01*
X82390476Y-126004819D02*
X83009523Y-126004819D01*
X68880952Y-115054819D02*
X68404762Y-115054819D01*
X68404762Y-115054819D02*
X68404762Y-114054819D01*
X69214286Y-114531009D02*
X69547619Y-114531009D01*
X69690476Y-115054819D02*
X69214286Y-115054819D01*
X69214286Y-115054819D02*
X69214286Y-114054819D01*
X69214286Y-114054819D02*
X69690476Y-114054819D01*
X70119048Y-115054819D02*
X70119048Y-114054819D01*
X70119048Y-114054819D02*
X70357143Y-114054819D01*
X70357143Y-114054819D02*
X70500000Y-114102438D01*
X70500000Y-114102438D02*
X70595238Y-114197676D01*
X70595238Y-114197676D02*
X70642857Y-114292914D01*
X70642857Y-114292914D02*
X70690476Y-114483390D01*
X70690476Y-114483390D02*
X70690476Y-114626247D01*
X70690476Y-114626247D02*
X70642857Y-114816723D01*
X70642857Y-114816723D02*
X70595238Y-114911961D01*
X70595238Y-114911961D02*
X70500000Y-115007200D01*
X70500000Y-115007200D02*
X70357143Y-115054819D01*
X70357143Y-115054819D02*
X70119048Y-115054819D01*
X71071429Y-114150057D02*
X71119048Y-114102438D01*
X71119048Y-114102438D02*
X71214286Y-114054819D01*
X71214286Y-114054819D02*
X71452381Y-114054819D01*
X71452381Y-114054819D02*
X71547619Y-114102438D01*
X71547619Y-114102438D02*
X71595238Y-114150057D01*
X71595238Y-114150057D02*
X71642857Y-114245295D01*
X71642857Y-114245295D02*
X71642857Y-114340533D01*
X71642857Y-114340533D02*
X71595238Y-114483390D01*
X71595238Y-114483390D02*
X71023810Y-115054819D01*
X71023810Y-115054819D02*
X71642857Y-115054819D01*
X55024819Y-111966666D02*
X54548628Y-112299999D01*
X55024819Y-112538094D02*
X54024819Y-112538094D01*
X54024819Y-112538094D02*
X54024819Y-112157142D01*
X54024819Y-112157142D02*
X54072438Y-112061904D01*
X54072438Y-112061904D02*
X54120057Y-112014285D01*
X54120057Y-112014285D02*
X54215295Y-111966666D01*
X54215295Y-111966666D02*
X54358152Y-111966666D01*
X54358152Y-111966666D02*
X54453390Y-112014285D01*
X54453390Y-112014285D02*
X54501009Y-112061904D01*
X54501009Y-112061904D02*
X54548628Y-112157142D01*
X54548628Y-112157142D02*
X54548628Y-112538094D01*
X54024819Y-111109523D02*
X54024819Y-111299999D01*
X54024819Y-111299999D02*
X54072438Y-111395237D01*
X54072438Y-111395237D02*
X54120057Y-111442856D01*
X54120057Y-111442856D02*
X54262914Y-111538094D01*
X54262914Y-111538094D02*
X54453390Y-111585713D01*
X54453390Y-111585713D02*
X54834342Y-111585713D01*
X54834342Y-111585713D02*
X54929580Y-111538094D01*
X54929580Y-111538094D02*
X54977200Y-111490475D01*
X54977200Y-111490475D02*
X55024819Y-111395237D01*
X55024819Y-111395237D02*
X55024819Y-111204761D01*
X55024819Y-111204761D02*
X54977200Y-111109523D01*
X54977200Y-111109523D02*
X54929580Y-111061904D01*
X54929580Y-111061904D02*
X54834342Y-111014285D01*
X54834342Y-111014285D02*
X54596247Y-111014285D01*
X54596247Y-111014285D02*
X54501009Y-111061904D01*
X54501009Y-111061904D02*
X54453390Y-111109523D01*
X54453390Y-111109523D02*
X54405771Y-111204761D01*
X54405771Y-111204761D02*
X54405771Y-111395237D01*
X54405771Y-111395237D02*
X54453390Y-111490475D01*
X54453390Y-111490475D02*
X54501009Y-111538094D01*
X54501009Y-111538094D02*
X54596247Y-111585713D01*
X57038095Y-126004819D02*
X57038095Y-125004819D01*
X57038095Y-125481009D02*
X57609523Y-125481009D01*
X57609523Y-126004819D02*
X57609523Y-125004819D01*
X58609523Y-126004819D02*
X58038095Y-126004819D01*
X58323809Y-126004819D02*
X58323809Y-125004819D01*
X58323809Y-125004819D02*
X58228571Y-125147676D01*
X58228571Y-125147676D02*
X58133333Y-125242914D01*
X58133333Y-125242914D02*
X58038095Y-125290533D01*
X69729580Y-132066666D02*
X69777200Y-132114285D01*
X69777200Y-132114285D02*
X69824819Y-132257142D01*
X69824819Y-132257142D02*
X69824819Y-132352380D01*
X69824819Y-132352380D02*
X69777200Y-132495237D01*
X69777200Y-132495237D02*
X69681961Y-132590475D01*
X69681961Y-132590475D02*
X69586723Y-132638094D01*
X69586723Y-132638094D02*
X69396247Y-132685713D01*
X69396247Y-132685713D02*
X69253390Y-132685713D01*
X69253390Y-132685713D02*
X69062914Y-132638094D01*
X69062914Y-132638094D02*
X68967676Y-132590475D01*
X68967676Y-132590475D02*
X68872438Y-132495237D01*
X68872438Y-132495237D02*
X68824819Y-132352380D01*
X68824819Y-132352380D02*
X68824819Y-132257142D01*
X68824819Y-132257142D02*
X68872438Y-132114285D01*
X68872438Y-132114285D02*
X68920057Y-132066666D01*
X68824819Y-131161904D02*
X68824819Y-131638094D01*
X68824819Y-131638094D02*
X69301009Y-131685713D01*
X69301009Y-131685713D02*
X69253390Y-131638094D01*
X69253390Y-131638094D02*
X69205771Y-131542856D01*
X69205771Y-131542856D02*
X69205771Y-131304761D01*
X69205771Y-131304761D02*
X69253390Y-131209523D01*
X69253390Y-131209523D02*
X69301009Y-131161904D01*
X69301009Y-131161904D02*
X69396247Y-131114285D01*
X69396247Y-131114285D02*
X69634342Y-131114285D01*
X69634342Y-131114285D02*
X69729580Y-131161904D01*
X69729580Y-131161904D02*
X69777200Y-131209523D01*
X69777200Y-131209523D02*
X69824819Y-131304761D01*
X69824819Y-131304761D02*
X69824819Y-131542856D01*
X69824819Y-131542856D02*
X69777200Y-131638094D01*
X69777200Y-131638094D02*
X69729580Y-131685713D01*
X57038095Y-101604819D02*
X57038095Y-100604819D01*
X57038095Y-101081009D02*
X57609523Y-101081009D01*
X57609523Y-101604819D02*
X57609523Y-100604819D01*
X58514285Y-100938152D02*
X58514285Y-101604819D01*
X58276190Y-100557200D02*
X58038095Y-101271485D01*
X58038095Y-101271485D02*
X58657142Y-101271485D01*
X114241577Y-112033333D02*
X114241577Y-112366666D01*
X114765387Y-112366666D02*
X113765387Y-112366666D01*
X113765387Y-112366666D02*
X113765387Y-111890476D01*
X114765387Y-110985714D02*
X114765387Y-111557142D01*
X114765387Y-111271428D02*
X113765387Y-111271428D01*
X113765387Y-111271428D02*
X113908244Y-111366666D01*
X113908244Y-111366666D02*
X114003482Y-111461904D01*
X114003482Y-111461904D02*
X114051101Y-111557142D01*
X89438095Y-116154819D02*
X89438095Y-116964342D01*
X89438095Y-116964342D02*
X89485714Y-117059580D01*
X89485714Y-117059580D02*
X89533333Y-117107200D01*
X89533333Y-117107200D02*
X89628571Y-117154819D01*
X89628571Y-117154819D02*
X89819047Y-117154819D01*
X89819047Y-117154819D02*
X89914285Y-117107200D01*
X89914285Y-117107200D02*
X89961904Y-117059580D01*
X89961904Y-117059580D02*
X90009523Y-116964342D01*
X90009523Y-116964342D02*
X90009523Y-116154819D01*
X90914285Y-116488152D02*
X90914285Y-117154819D01*
X90676190Y-116107200D02*
X90438095Y-116821485D01*
X90438095Y-116821485D02*
X91057142Y-116821485D01*
X48066667Y-111717200D02*
X48209524Y-111764819D01*
X48209524Y-111764819D02*
X48447619Y-111764819D01*
X48447619Y-111764819D02*
X48542857Y-111717200D01*
X48542857Y-111717200D02*
X48590476Y-111669580D01*
X48590476Y-111669580D02*
X48638095Y-111574342D01*
X48638095Y-111574342D02*
X48638095Y-111479104D01*
X48638095Y-111479104D02*
X48590476Y-111383866D01*
X48590476Y-111383866D02*
X48542857Y-111336247D01*
X48542857Y-111336247D02*
X48447619Y-111288628D01*
X48447619Y-111288628D02*
X48257143Y-111241009D01*
X48257143Y-111241009D02*
X48161905Y-111193390D01*
X48161905Y-111193390D02*
X48114286Y-111145771D01*
X48114286Y-111145771D02*
X48066667Y-111050533D01*
X48066667Y-111050533D02*
X48066667Y-110955295D01*
X48066667Y-110955295D02*
X48114286Y-110860057D01*
X48114286Y-110860057D02*
X48161905Y-110812438D01*
X48161905Y-110812438D02*
X48257143Y-110764819D01*
X48257143Y-110764819D02*
X48495238Y-110764819D01*
X48495238Y-110764819D02*
X48638095Y-110812438D01*
X48971429Y-110764819D02*
X49209524Y-111764819D01*
X49209524Y-111764819D02*
X49400000Y-111050533D01*
X49400000Y-111050533D02*
X49590476Y-111764819D01*
X49590476Y-111764819D02*
X49828572Y-110764819D01*
X50161905Y-110860057D02*
X50209524Y-110812438D01*
X50209524Y-110812438D02*
X50304762Y-110764819D01*
X50304762Y-110764819D02*
X50542857Y-110764819D01*
X50542857Y-110764819D02*
X50638095Y-110812438D01*
X50638095Y-110812438D02*
X50685714Y-110860057D01*
X50685714Y-110860057D02*
X50733333Y-110955295D01*
X50733333Y-110955295D02*
X50733333Y-111050533D01*
X50733333Y-111050533D02*
X50685714Y-111193390D01*
X50685714Y-111193390D02*
X50114286Y-111764819D01*
X50114286Y-111764819D02*
X50733333Y-111764819D01*
X128266666Y-124574819D02*
X128266666Y-125289104D01*
X128266666Y-125289104D02*
X128219047Y-125431961D01*
X128219047Y-125431961D02*
X128123809Y-125527200D01*
X128123809Y-125527200D02*
X127980952Y-125574819D01*
X127980952Y-125574819D02*
X127885714Y-125574819D01*
X129171428Y-124908152D02*
X129171428Y-125574819D01*
X128933333Y-124527200D02*
X128695238Y-125241485D01*
X128695238Y-125241485D02*
X129314285Y-125241485D01*
X91433333Y-133554819D02*
X90957143Y-133554819D01*
X90957143Y-133554819D02*
X90957143Y-132554819D01*
X91719048Y-132650057D02*
X91766667Y-132602438D01*
X91766667Y-132602438D02*
X91861905Y-132554819D01*
X91861905Y-132554819D02*
X92100000Y-132554819D01*
X92100000Y-132554819D02*
X92195238Y-132602438D01*
X92195238Y-132602438D02*
X92242857Y-132650057D01*
X92242857Y-132650057D02*
X92290476Y-132745295D01*
X92290476Y-132745295D02*
X92290476Y-132840533D01*
X92290476Y-132840533D02*
X92242857Y-132983390D01*
X92242857Y-132983390D02*
X91671429Y-133554819D01*
X91671429Y-133554819D02*
X92290476Y-133554819D01*
X103159580Y-128066666D02*
X103207200Y-128114285D01*
X103207200Y-128114285D02*
X103254819Y-128257142D01*
X103254819Y-128257142D02*
X103254819Y-128352380D01*
X103254819Y-128352380D02*
X103207200Y-128495237D01*
X103207200Y-128495237D02*
X103111961Y-128590475D01*
X103111961Y-128590475D02*
X103016723Y-128638094D01*
X103016723Y-128638094D02*
X102826247Y-128685713D01*
X102826247Y-128685713D02*
X102683390Y-128685713D01*
X102683390Y-128685713D02*
X102492914Y-128638094D01*
X102492914Y-128638094D02*
X102397676Y-128590475D01*
X102397676Y-128590475D02*
X102302438Y-128495237D01*
X102302438Y-128495237D02*
X102254819Y-128352380D01*
X102254819Y-128352380D02*
X102254819Y-128257142D01*
X102254819Y-128257142D02*
X102302438Y-128114285D01*
X102302438Y-128114285D02*
X102350057Y-128066666D01*
X102254819Y-127733332D02*
X102254819Y-127114285D01*
X102254819Y-127114285D02*
X102635771Y-127447618D01*
X102635771Y-127447618D02*
X102635771Y-127304761D01*
X102635771Y-127304761D02*
X102683390Y-127209523D01*
X102683390Y-127209523D02*
X102731009Y-127161904D01*
X102731009Y-127161904D02*
X102826247Y-127114285D01*
X102826247Y-127114285D02*
X103064342Y-127114285D01*
X103064342Y-127114285D02*
X103159580Y-127161904D01*
X103159580Y-127161904D02*
X103207200Y-127209523D01*
X103207200Y-127209523D02*
X103254819Y-127304761D01*
X103254819Y-127304761D02*
X103254819Y-127590475D01*
X103254819Y-127590475D02*
X103207200Y-127685713D01*
X103207200Y-127685713D02*
X103159580Y-127733332D01*
X104054819Y-126138094D02*
X103054819Y-126138094D01*
X103054819Y-126138094D02*
X103054819Y-125899999D01*
X103054819Y-125899999D02*
X103102438Y-125757142D01*
X103102438Y-125757142D02*
X103197676Y-125661904D01*
X103197676Y-125661904D02*
X103292914Y-125614285D01*
X103292914Y-125614285D02*
X103483390Y-125566666D01*
X103483390Y-125566666D02*
X103626247Y-125566666D01*
X103626247Y-125566666D02*
X103816723Y-125614285D01*
X103816723Y-125614285D02*
X103911961Y-125661904D01*
X103911961Y-125661904D02*
X104007200Y-125757142D01*
X104007200Y-125757142D02*
X104054819Y-125899999D01*
X104054819Y-125899999D02*
X104054819Y-126138094D01*
X104054819Y-124614285D02*
X104054819Y-125185713D01*
X104054819Y-124899999D02*
X103054819Y-124899999D01*
X103054819Y-124899999D02*
X103197676Y-124995237D01*
X103197676Y-124995237D02*
X103292914Y-125090475D01*
X103292914Y-125090475D02*
X103340533Y-125185713D01*
X101847234Y-113499819D02*
X101847234Y-114214104D01*
X101847234Y-114214104D02*
X101799615Y-114356961D01*
X101799615Y-114356961D02*
X101704377Y-114452200D01*
X101704377Y-114452200D02*
X101561520Y-114499819D01*
X101561520Y-114499819D02*
X101466282Y-114499819D01*
X102275806Y-113595057D02*
X102323425Y-113547438D01*
X102323425Y-113547438D02*
X102418663Y-113499819D01*
X102418663Y-113499819D02*
X102656758Y-113499819D01*
X102656758Y-113499819D02*
X102751996Y-113547438D01*
X102751996Y-113547438D02*
X102799615Y-113595057D01*
X102799615Y-113595057D02*
X102847234Y-113690295D01*
X102847234Y-113690295D02*
X102847234Y-113785533D01*
X102847234Y-113785533D02*
X102799615Y-113928390D01*
X102799615Y-113928390D02*
X102228187Y-114499819D01*
X102228187Y-114499819D02*
X102847234Y-114499819D01*
X81438095Y-101604819D02*
X81438095Y-100604819D01*
X81438095Y-101081009D02*
X82009523Y-101081009D01*
X82009523Y-101604819D02*
X82009523Y-100604819D01*
X82390476Y-100604819D02*
X83009523Y-100604819D01*
X83009523Y-100604819D02*
X82676190Y-100985771D01*
X82676190Y-100985771D02*
X82819047Y-100985771D01*
X82819047Y-100985771D02*
X82914285Y-101033390D01*
X82914285Y-101033390D02*
X82961904Y-101081009D01*
X82961904Y-101081009D02*
X83009523Y-101176247D01*
X83009523Y-101176247D02*
X83009523Y-101414342D01*
X83009523Y-101414342D02*
X82961904Y-101509580D01*
X82961904Y-101509580D02*
X82914285Y-101557200D01*
X82914285Y-101557200D02*
X82819047Y-101604819D01*
X82819047Y-101604819D02*
X82533333Y-101604819D01*
X82533333Y-101604819D02*
X82438095Y-101557200D01*
X82438095Y-101557200D02*
X82390476Y-101509580D01*
X112094853Y-125051009D02*
X112237710Y-125098628D01*
X112237710Y-125098628D02*
X112285329Y-125146247D01*
X112285329Y-125146247D02*
X112332948Y-125241485D01*
X112332948Y-125241485D02*
X112332948Y-125384342D01*
X112332948Y-125384342D02*
X112285329Y-125479580D01*
X112285329Y-125479580D02*
X112237710Y-125527200D01*
X112237710Y-125527200D02*
X112142472Y-125574819D01*
X112142472Y-125574819D02*
X111761520Y-125574819D01*
X111761520Y-125574819D02*
X111761520Y-124574819D01*
X111761520Y-124574819D02*
X112094853Y-124574819D01*
X112094853Y-124574819D02*
X112190091Y-124622438D01*
X112190091Y-124622438D02*
X112237710Y-124670057D01*
X112237710Y-124670057D02*
X112285329Y-124765295D01*
X112285329Y-124765295D02*
X112285329Y-124860533D01*
X112285329Y-124860533D02*
X112237710Y-124955771D01*
X112237710Y-124955771D02*
X112190091Y-125003390D01*
X112190091Y-125003390D02*
X112094853Y-125051009D01*
X112094853Y-125051009D02*
X111761520Y-125051009D01*
X112618663Y-124574819D02*
X113190091Y-124574819D01*
X112904377Y-125574819D02*
X112904377Y-124574819D01*
X113475806Y-124670057D02*
X113523425Y-124622438D01*
X113523425Y-124622438D02*
X113618663Y-124574819D01*
X113618663Y-124574819D02*
X113856758Y-124574819D01*
X113856758Y-124574819D02*
X113951996Y-124622438D01*
X113951996Y-124622438D02*
X113999615Y-124670057D01*
X113999615Y-124670057D02*
X114047234Y-124765295D01*
X114047234Y-124765295D02*
X114047234Y-124860533D01*
X114047234Y-124860533D02*
X113999615Y-125003390D01*
X113999615Y-125003390D02*
X113428187Y-125574819D01*
X113428187Y-125574819D02*
X114047234Y-125574819D01*
X85939580Y-111766666D02*
X85987200Y-111814285D01*
X85987200Y-111814285D02*
X86034819Y-111957142D01*
X86034819Y-111957142D02*
X86034819Y-112052380D01*
X86034819Y-112052380D02*
X85987200Y-112195237D01*
X85987200Y-112195237D02*
X85891961Y-112290475D01*
X85891961Y-112290475D02*
X85796723Y-112338094D01*
X85796723Y-112338094D02*
X85606247Y-112385713D01*
X85606247Y-112385713D02*
X85463390Y-112385713D01*
X85463390Y-112385713D02*
X85272914Y-112338094D01*
X85272914Y-112338094D02*
X85177676Y-112290475D01*
X85177676Y-112290475D02*
X85082438Y-112195237D01*
X85082438Y-112195237D02*
X85034819Y-112052380D01*
X85034819Y-112052380D02*
X85034819Y-111957142D01*
X85034819Y-111957142D02*
X85082438Y-111814285D01*
X85082438Y-111814285D02*
X85130057Y-111766666D01*
X85368152Y-110909523D02*
X86034819Y-110909523D01*
X84987200Y-111147618D02*
X85701485Y-111385713D01*
X85701485Y-111385713D02*
X85701485Y-110766666D01*
X128266666Y-104574819D02*
X128266666Y-105289104D01*
X128266666Y-105289104D02*
X128219047Y-105431961D01*
X128219047Y-105431961D02*
X128123809Y-105527200D01*
X128123809Y-105527200D02*
X127980952Y-105574819D01*
X127980952Y-105574819D02*
X127885714Y-105574819D01*
X129266666Y-105574819D02*
X128695238Y-105574819D01*
X128980952Y-105574819D02*
X128980952Y-104574819D01*
X128980952Y-104574819D02*
X128885714Y-104717676D01*
X128885714Y-104717676D02*
X128790476Y-104812914D01*
X128790476Y-104812914D02*
X128695238Y-104860533D01*
%TO.C,U3*%
D13*
X64420000Y-133160000D02*
X66180000Y-133160000D01*
X65380000Y-130090000D02*
X64580000Y-130090000D01*
X65380000Y-130090000D02*
X66180000Y-130090000D01*
X64080000Y-130140000D02*
X63840000Y-129810000D01*
X64320000Y-129810000D01*
X64080000Y-130140000D01*
G36*
X64080000Y-130140000D02*
G01*
X63840000Y-129810000D01*
X64320000Y-129810000D01*
X64080000Y-130140000D01*
G37*
%TO.C,D3*%
X76910000Y-100750000D02*
X65600000Y-100750000D01*
X76910000Y-100750000D02*
X76910000Y-107250000D01*
X76910000Y-107250000D02*
X65600000Y-107250000D01*
%TO.C,R7*%
X52967621Y-113220000D02*
X52632379Y-113220000D01*
X52967621Y-113980000D02*
X52632379Y-113980000D01*
%TO.C,BT1*%
X111500568Y-106120000D02*
X112880568Y-106120000D01*
X111500568Y-107500000D02*
X111500568Y-106120000D01*
X111500568Y-108770000D02*
X111500568Y-108880000D01*
X111500568Y-108770000D02*
X114260568Y-108770000D01*
X111500568Y-108880000D02*
X114260568Y-108880000D01*
X114260568Y-108770000D02*
X114260568Y-108880000D01*
%TO.C,C1*%
X96690000Y-111583767D02*
X96690000Y-111291233D01*
X97710000Y-111583767D02*
X97710000Y-111291233D01*
%TO.C,J3*%
X96020000Y-115045000D02*
X97400000Y-115045000D01*
X96020000Y-116425000D02*
X96020000Y-115045000D01*
X96020000Y-117695000D02*
X96020000Y-120345000D01*
X96020000Y-117695000D02*
X98780000Y-117695000D01*
X96020000Y-120345000D02*
X98780000Y-120345000D01*
X98780000Y-117695000D02*
X98780000Y-120345000D01*
%TO.C,R3*%
X82072936Y-115390000D02*
X83527064Y-115390000D01*
X82072936Y-117210000D02*
X83527064Y-117210000D01*
%TO.C,LED2*%
X68200000Y-115700000D02*
X71800000Y-115700000D01*
X68200000Y-119300000D02*
X68200000Y-115700000D01*
X71800000Y-119300000D02*
X68200000Y-119300000D01*
%TO.C,R6*%
X53020000Y-111632379D02*
X53020000Y-111967621D01*
X53780000Y-111632379D02*
X53780000Y-111967621D01*
%TO.C,C5*%
X70290000Y-132046267D02*
X70290000Y-131753733D01*
X71310000Y-132046267D02*
X71310000Y-131753733D01*
%TO.C,F1*%
X112370568Y-111528733D02*
X112370568Y-111871267D01*
X113390568Y-111528733D02*
X113390568Y-111871267D01*
%TO.C,U4*%
X88290000Y-108790000D02*
X88290000Y-110050000D01*
X88290000Y-115610000D02*
X88290000Y-114350000D01*
X92050000Y-108790000D02*
X88290000Y-108790000D01*
X92050000Y-115610000D02*
X88290000Y-115610000D01*
X93570000Y-115840000D02*
X93090000Y-115840000D01*
X93330000Y-115510000D01*
X93570000Y-115840000D01*
G36*
X93570000Y-115840000D02*
G01*
X93090000Y-115840000D01*
X93330000Y-115510000D01*
X93570000Y-115840000D01*
G37*
%TO.C,SW2*%
X48020000Y-112310000D02*
X49400000Y-112310000D01*
X48020000Y-113690000D02*
X48020000Y-112310000D01*
X48020000Y-114960000D02*
X48020000Y-122690000D01*
X48020000Y-114960000D02*
X50780000Y-114960000D01*
X48020000Y-122690000D02*
X50780000Y-122690000D01*
X50780000Y-114960000D02*
X50780000Y-122690000D01*
%TO.C,J4*%
X127220000Y-126120000D02*
X128600000Y-126120000D01*
X127220000Y-127500000D02*
X127220000Y-126120000D01*
X127220000Y-128770000D02*
X127220000Y-128880000D01*
X127220000Y-128770000D02*
X129980000Y-128770000D01*
X127220000Y-128880000D02*
X129980000Y-128880000D01*
X129980000Y-128770000D02*
X129980000Y-128880000D01*
%TO.C,L2*%
X95600000Y-126000000D02*
X87600000Y-126000000D01*
X95600000Y-132200000D02*
X87600000Y-132200000D01*
%TO.C,C3*%
X102165000Y-125561252D02*
X102165000Y-125038748D01*
X103635000Y-125561252D02*
X103635000Y-125038748D01*
%TO.C,D1*%
X104450000Y-132310000D02*
X104450000Y-121000000D01*
X110950000Y-132310000D02*
X104450000Y-132310000D01*
X110950000Y-132310000D02*
X110950000Y-121000000D01*
%TO.C,J2*%
X100800568Y-115045000D02*
X102180568Y-115045000D01*
X100800568Y-116425000D02*
X100800568Y-115045000D01*
X100800568Y-117695000D02*
X100800568Y-120345000D01*
X100800568Y-117695000D02*
X103560568Y-117695000D01*
X100800568Y-120345000D02*
X103560568Y-120345000D01*
X103560568Y-117695000D02*
X103560568Y-120345000D01*
%TO.C,BT2*%
X111500568Y-126120000D02*
X112880568Y-126120000D01*
X111500568Y-127500000D02*
X111500568Y-126120000D01*
X111500568Y-128770000D02*
X111500568Y-128880000D01*
X111500568Y-128770000D02*
X114260568Y-128770000D01*
X111500568Y-128880000D02*
X114260568Y-128880000D01*
X114260568Y-128770000D02*
X114260568Y-128880000D01*
%TO.C,C4*%
X83165000Y-111338748D02*
X83165000Y-111861252D01*
X84635000Y-111338748D02*
X84635000Y-111861252D01*
%TO.C,J1*%
X127220000Y-106120000D02*
X128600000Y-106120000D01*
X127220000Y-107500000D02*
X127220000Y-106120000D01*
X127220000Y-108770000D02*
X127220000Y-108880000D01*
X127220000Y-108770000D02*
X129980000Y-108770000D01*
X127220000Y-108880000D02*
X129980000Y-108880000D01*
X129980000Y-108770000D02*
X129980000Y-108880000D01*
%TD*%
M02*
