%TF.GenerationSoftware,KiCad,Pcbnew,10.0.1*%
%TF.CreationDate,2026-08-20T14:06:56+02:00*%
%TF.ProjectId,SpeleoFox,5370656c-656f-4466-9f78-2e6b69636164,rev?*%
%TF.SameCoordinates,Original*%
%TF.FileFunction,Copper,L2,Bot*%
%TF.FilePolarity,Positive*%
%FSLAX46Y46*%
G04 Gerber Fmt 4.6, Leading zero omitted, Abs format (unit mm)*
G04 Created by KiCad (PCBNEW 10.0.1) date 2026-08-20 14:06:56*
%MOMM*%
%LPD*%
G01*
G04 APERTURE LIST*
%TA.AperFunction,ComponentPad*%
%ADD10R,1.700000X1.700000*%
%TD*%
%TA.AperFunction,ComponentPad*%
%ADD11C,1.700000*%
%TD*%
%TA.AperFunction,ViaPad*%
%ADD12C,0.600000*%
%TD*%
%TA.AperFunction,Conductor*%
%ADD13C,0.500000*%
%TD*%
G04 APERTURE END LIST*
D10*
%TO.P,BT1,1,+_1*%
%TO.N,/VBAT_RAW*%
X112880568Y-107500000D03*
%TD*%
%TO.P,J3,1,Pin_1_1*%
%TO.N,GND*%
X97400000Y-116425000D03*
D11*
%TO.P,J3,2,Pin_2_2*%
%TO.N,/VBAT*%
X97400000Y-118965000D03*
%TD*%
D10*
%TO.P,SW2,1,1_1*%
%TO.N,Net-(R7-Pad2)*%
X49400000Y-113690000D03*
D11*
%TO.P,SW2,2,2_2*%
%TO.N,GND*%
X49400000Y-116230000D03*
%TO.P,SW2,3,3_3*%
%TO.N,/CTRL*%
X49400000Y-118770000D03*
%TO.P,SW2,4,4_4*%
%TO.N,+2V5*%
X49400000Y-121310000D03*
%TD*%
D10*
%TO.P,J4,1,Pin_1_1*%
%TO.N,Net-(J1-Pin_1)*%
X128600000Y-127500000D03*
%TD*%
%TO.P,J2,1,Pin_1_1*%
%TO.N,Net-(D1-K)*%
X102180568Y-116425000D03*
D11*
%TO.P,J2,2,Pin_2_2*%
%TO.N,B_GND*%
X102180568Y-118965000D03*
%TD*%
D10*
%TO.P,BT2,1,+_1*%
%TO.N,B_GND*%
X112880568Y-127500000D03*
%TD*%
%TO.P,J1,1,Pin_1_1*%
%TO.N,Net-(J1-Pin_1)*%
X128600000Y-107500000D03*
%TD*%
D12*
%TO.N,Net-(D3-A)*%
X62400000Y-110000000D03*
X61700000Y-127200000D03*
%TO.N,GND*%
X95300000Y-111100000D03*
X52600000Y-119800000D03*
X85800000Y-108300000D03*
X53400000Y-108300000D03*
%TO.N,Net-(LED2-A)*%
X72700000Y-122800000D03*
X68900000Y-132600000D03*
%TO.N,/VBAT*%
X79100000Y-116400000D03*
X94400000Y-121700000D03*
X70600000Y-129100000D03*
%TO.N,B_GND*%
X105280568Y-125100000D03*
%TD*%
%TO.N,Net-(D3-A)*%
D13*
X61700000Y-110700000D02*
X62400000Y-110000000D01*
X61700000Y-127200000D02*
X61700000Y-110700000D01*
%TO.N,GND*%
X48500000Y-108300000D02*
X46000000Y-110800000D01*
X92500000Y-108300000D02*
X95300000Y-111100000D01*
X46000000Y-110800000D02*
X46000000Y-114400000D01*
X46000000Y-114400000D02*
X47700000Y-116100000D01*
X85800000Y-108300000D02*
X53400000Y-108300000D01*
X47700000Y-116100000D02*
X49270000Y-116100000D01*
X52600000Y-119800000D02*
X52600000Y-119430000D01*
X92500000Y-108300000D02*
X85800000Y-108300000D01*
X48700000Y-108300000D02*
X48500000Y-108300000D01*
X49270000Y-116100000D02*
X49400000Y-116230000D01*
X52600000Y-119430000D02*
X49400000Y-116230000D01*
X53400000Y-108300000D02*
X48700000Y-108300000D01*
%TO.N,Net-(LED2-A)*%
X72700000Y-122800000D02*
X68900000Y-126600000D01*
X68900000Y-126600000D02*
X68900000Y-132600000D01*
%TO.N,/VBAT*%
X94400000Y-121700000D02*
X91960000Y-121700000D01*
X70600000Y-129100000D02*
X78000000Y-121700000D01*
X79100000Y-116400000D02*
X86660000Y-116400000D01*
X86660000Y-116400000D02*
X91960000Y-121700000D01*
X78000000Y-121700000D02*
X91960000Y-121700000D01*
%TO.N,B_GND*%
X101580568Y-119565000D02*
X102180568Y-118965000D01*
X101580568Y-123400000D02*
X101580568Y-119565000D01*
X105280568Y-125100000D02*
X103280568Y-125100000D01*
X103280568Y-125100000D02*
X101580568Y-123400000D01*
%TD*%
M02*
