%TF.GenerationSoftware,KiCad,Pcbnew,10.0.1*%
%TF.CreationDate,2026-08-20T14:06:56+02:00*%
%TF.ProjectId,SpeleoFox,5370656c-656f-4466-9f78-2e6b69636164,rev?*%
%TF.SameCoordinates,Original*%
%TF.FileFunction,Profile,NP*%
%FSLAX46Y46*%
G04 Gerber Fmt 4.6, Leading zero omitted, Abs format (unit mm)*
G04 Created by KiCad (PCBNEW 10.0.1) date 2026-08-20 14:06:56*
%MOMM*%
%LPD*%
G01*
G04 APERTURE LIST*
%TA.AperFunction,Profile*%
%ADD10C,0.050000*%
%TD*%
%TA.AperFunction,Profile*%
%ADD11C,0.100000*%
%TD*%
G04 APERTURE END LIST*
D10*
X40000000Y-110000000D02*
G75*
G02*
X50000000Y-100000000I10000000J0D01*
G01*
X40000000Y-125000000D02*
X40000000Y-110000000D01*
X50000000Y-100000000D02*
X90000000Y-100000000D01*
X50000000Y-135000000D02*
G75*
G02*
X40000000Y-125000000I0J10000000D01*
G01*
X90000000Y-100000000D02*
G75*
G02*
X100000000Y-110000000I0J-10000000D01*
G01*
X90000000Y-135000000D02*
X50000000Y-135000000D01*
X100000000Y-110000000D02*
X100400000Y-110000000D01*
X100000000Y-110700000D02*
X100400000Y-110700000D01*
X100400000Y-124400000D01*
X100000000Y-124400000D01*
X100000000Y-110700000D01*
X100000000Y-125000000D02*
G75*
G02*
X90000000Y-135000000I-10000000J0D01*
G01*
X100000000Y-125000000D02*
X100400000Y-125000000D01*
X100400000Y-107472076D02*
X100400000Y-110000000D01*
D11*
X100400000Y-107472076D02*
G75*
G02*
X115400000Y-107472076I7500000J0D01*
G01*
D10*
X100400000Y-127472076D02*
X100400000Y-125000000D01*
X115380568Y-108500000D02*
X115880568Y-108500000D01*
X115880568Y-126500000D01*
X115380568Y-126500000D01*
X115380568Y-108500000D01*
X115400000Y-107472076D02*
X115880568Y-107500000D01*
D11*
X115400000Y-127472076D02*
G75*
G02*
X100400000Y-127472076I-7500000J0D01*
G01*
D10*
X115400000Y-127472076D02*
X115880568Y-127500000D01*
D11*
X115880568Y-107500000D02*
G75*
G02*
X130880568Y-107500000I7500000J0D01*
G01*
X130880568Y-127500000D02*
G75*
G02*
X115880568Y-127500000I-7500000J0D01*
G01*
X130880568Y-127500000D02*
X130880568Y-107500000D01*
M02*
