%TF.GenerationSoftware,KiCad,Pcbnew,10.0.1*%
%TF.CreationDate,2026-08-20T14:06:56+02:00*%
%TF.ProjectId,SpeleoFox,5370656c-656f-4466-9f78-2e6b69636164,rev?*%
%TF.SameCoordinates,Original*%
%TF.FileFunction,Legend,Bot*%
%TF.FilePolarity,Positive*%
%FSLAX46Y46*%
G04 Gerber Fmt 4.6, Leading zero omitted, Abs format (unit mm)*
G04 Created by KiCad (PCBNEW 10.0.1) date 2026-08-20 14:06:56*
%MOMM*%
%LPD*%
G01*
G04 APERTURE LIST*
%ADD10C,0.200000*%
%ADD11C,0.625000*%
G04 APERTURE END LIST*
D10*
X98330326Y-123367219D02*
X98330326Y-122367219D01*
X98330326Y-122367219D02*
X97996993Y-123081504D01*
X97996993Y-123081504D02*
X97663660Y-122367219D01*
X97663660Y-122367219D02*
X97663660Y-123367219D01*
X96758898Y-123367219D02*
X96758898Y-122843409D01*
X96758898Y-122843409D02*
X96806517Y-122748171D01*
X96806517Y-122748171D02*
X96901755Y-122700552D01*
X96901755Y-122700552D02*
X97092231Y-122700552D01*
X97092231Y-122700552D02*
X97187469Y-122748171D01*
X96758898Y-123319600D02*
X96854136Y-123367219D01*
X96854136Y-123367219D02*
X97092231Y-123367219D01*
X97092231Y-123367219D02*
X97187469Y-123319600D01*
X97187469Y-123319600D02*
X97235088Y-123224361D01*
X97235088Y-123224361D02*
X97235088Y-123129123D01*
X97235088Y-123129123D02*
X97187469Y-123033885D01*
X97187469Y-123033885D02*
X97092231Y-122986266D01*
X97092231Y-122986266D02*
X96854136Y-122986266D01*
X96854136Y-122986266D02*
X96758898Y-122938647D01*
X96282707Y-123367219D02*
X96282707Y-122700552D01*
X96282707Y-122891028D02*
X96235088Y-122795790D01*
X96235088Y-122795790D02*
X96187469Y-122748171D01*
X96187469Y-122748171D02*
X96092231Y-122700552D01*
X96092231Y-122700552D02*
X95996993Y-122700552D01*
X95663659Y-123367219D02*
X95663659Y-122367219D01*
X95568421Y-122986266D02*
X95282707Y-123367219D01*
X95282707Y-122700552D02*
X95663659Y-123081504D01*
X94139849Y-123319600D02*
X93996992Y-123367219D01*
X93996992Y-123367219D02*
X93758897Y-123367219D01*
X93758897Y-123367219D02*
X93663659Y-123319600D01*
X93663659Y-123319600D02*
X93616040Y-123271980D01*
X93616040Y-123271980D02*
X93568421Y-123176742D01*
X93568421Y-123176742D02*
X93568421Y-123081504D01*
X93568421Y-123081504D02*
X93616040Y-122986266D01*
X93616040Y-122986266D02*
X93663659Y-122938647D01*
X93663659Y-122938647D02*
X93758897Y-122891028D01*
X93758897Y-122891028D02*
X93949373Y-122843409D01*
X93949373Y-122843409D02*
X94044611Y-122795790D01*
X94044611Y-122795790D02*
X94092230Y-122748171D01*
X94092230Y-122748171D02*
X94139849Y-122652933D01*
X94139849Y-122652933D02*
X94139849Y-122557695D01*
X94139849Y-122557695D02*
X94092230Y-122462457D01*
X94092230Y-122462457D02*
X94044611Y-122414838D01*
X94044611Y-122414838D02*
X93949373Y-122367219D01*
X93949373Y-122367219D02*
X93711278Y-122367219D01*
X93711278Y-122367219D02*
X93568421Y-122414838D01*
X92711278Y-123319600D02*
X92806516Y-123367219D01*
X92806516Y-123367219D02*
X92996992Y-123367219D01*
X92996992Y-123367219D02*
X93092230Y-123319600D01*
X93092230Y-123319600D02*
X93139849Y-123271980D01*
X93139849Y-123271980D02*
X93187468Y-123176742D01*
X93187468Y-123176742D02*
X93187468Y-122891028D01*
X93187468Y-122891028D02*
X93139849Y-122795790D01*
X93139849Y-122795790D02*
X93092230Y-122748171D01*
X93092230Y-122748171D02*
X92996992Y-122700552D01*
X92996992Y-122700552D02*
X92806516Y-122700552D01*
X92806516Y-122700552D02*
X92711278Y-122748171D01*
X92282706Y-123367219D02*
X92282706Y-122367219D01*
X91854135Y-123367219D02*
X91854135Y-122843409D01*
X91854135Y-122843409D02*
X91901754Y-122748171D01*
X91901754Y-122748171D02*
X91996992Y-122700552D01*
X91996992Y-122700552D02*
X92139849Y-122700552D01*
X92139849Y-122700552D02*
X92235087Y-122748171D01*
X92235087Y-122748171D02*
X92282706Y-122795790D01*
X90949373Y-123367219D02*
X90949373Y-122843409D01*
X90949373Y-122843409D02*
X90996992Y-122748171D01*
X90996992Y-122748171D02*
X91092230Y-122700552D01*
X91092230Y-122700552D02*
X91282706Y-122700552D01*
X91282706Y-122700552D02*
X91377944Y-122748171D01*
X90949373Y-123319600D02*
X91044611Y-123367219D01*
X91044611Y-123367219D02*
X91282706Y-123367219D01*
X91282706Y-123367219D02*
X91377944Y-123319600D01*
X91377944Y-123319600D02*
X91425563Y-123224361D01*
X91425563Y-123224361D02*
X91425563Y-123129123D01*
X91425563Y-123129123D02*
X91377944Y-123033885D01*
X91377944Y-123033885D02*
X91282706Y-122986266D01*
X91282706Y-122986266D02*
X91044611Y-122986266D01*
X91044611Y-122986266D02*
X90949373Y-122938647D01*
X90473182Y-123367219D02*
X90473182Y-122700552D01*
X90473182Y-122891028D02*
X90425563Y-122795790D01*
X90425563Y-122795790D02*
X90377944Y-122748171D01*
X90377944Y-122748171D02*
X90282706Y-122700552D01*
X90282706Y-122700552D02*
X90187468Y-122700552D01*
X89711277Y-123367219D02*
X89806515Y-123319600D01*
X89806515Y-123319600D02*
X89854134Y-123271980D01*
X89854134Y-123271980D02*
X89901753Y-123176742D01*
X89901753Y-123176742D02*
X89901753Y-122891028D01*
X89901753Y-122891028D02*
X89854134Y-122795790D01*
X89854134Y-122795790D02*
X89806515Y-122748171D01*
X89806515Y-122748171D02*
X89711277Y-122700552D01*
X89711277Y-122700552D02*
X89568420Y-122700552D01*
X89568420Y-122700552D02*
X89473182Y-122748171D01*
X89473182Y-122748171D02*
X89425563Y-122795790D01*
X89425563Y-122795790D02*
X89377944Y-122891028D01*
X89377944Y-122891028D02*
X89377944Y-123176742D01*
X89377944Y-123176742D02*
X89425563Y-123271980D01*
X89425563Y-123271980D02*
X89473182Y-123319600D01*
X89473182Y-123319600D02*
X89568420Y-123367219D01*
X89568420Y-123367219D02*
X89711277Y-123367219D01*
X88949372Y-122700552D02*
X88949372Y-123367219D01*
X88949372Y-122795790D02*
X88901753Y-122748171D01*
X88901753Y-122748171D02*
X88806515Y-122700552D01*
X88806515Y-122700552D02*
X88663658Y-122700552D01*
X88663658Y-122700552D02*
X88568420Y-122748171D01*
X88568420Y-122748171D02*
X88520801Y-122843409D01*
X88520801Y-122843409D02*
X88520801Y-123367219D01*
X87901753Y-123367219D02*
X87996991Y-123319600D01*
X87996991Y-123319600D02*
X88044610Y-123271980D01*
X88044610Y-123271980D02*
X88092229Y-123176742D01*
X88092229Y-123176742D02*
X88092229Y-122891028D01*
X88092229Y-122891028D02*
X88044610Y-122795790D01*
X88044610Y-122795790D02*
X87996991Y-122748171D01*
X87996991Y-122748171D02*
X87901753Y-122700552D01*
X87901753Y-122700552D02*
X87758896Y-122700552D01*
X87758896Y-122700552D02*
X87663658Y-122748171D01*
X87663658Y-122748171D02*
X87616039Y-122795790D01*
X87616039Y-122795790D02*
X87568420Y-122891028D01*
X87568420Y-122891028D02*
X87568420Y-123176742D01*
X87568420Y-123176742D02*
X87616039Y-123271980D01*
X87616039Y-123271980D02*
X87663658Y-123319600D01*
X87663658Y-123319600D02*
X87758896Y-123367219D01*
X87758896Y-123367219D02*
X87901753Y-123367219D01*
X87235086Y-122700552D02*
X87044610Y-123367219D01*
X87044610Y-123367219D02*
X86854134Y-122891028D01*
X86854134Y-122891028D02*
X86663658Y-123367219D01*
X86663658Y-123367219D02*
X86473182Y-122700552D01*
X86044610Y-123319600D02*
X86044610Y-123367219D01*
X86044610Y-123367219D02*
X86092229Y-123462457D01*
X86092229Y-123462457D02*
X86139848Y-123510076D01*
X84901753Y-122462457D02*
X84854134Y-122414838D01*
X84854134Y-122414838D02*
X84758896Y-122367219D01*
X84758896Y-122367219D02*
X84520801Y-122367219D01*
X84520801Y-122367219D02*
X84425563Y-122414838D01*
X84425563Y-122414838D02*
X84377944Y-122462457D01*
X84377944Y-122462457D02*
X84330325Y-122557695D01*
X84330325Y-122557695D02*
X84330325Y-122652933D01*
X84330325Y-122652933D02*
X84377944Y-122795790D01*
X84377944Y-122795790D02*
X84949372Y-123367219D01*
X84949372Y-123367219D02*
X84330325Y-123367219D01*
X83711277Y-122367219D02*
X83616039Y-122367219D01*
X83616039Y-122367219D02*
X83520801Y-122414838D01*
X83520801Y-122414838D02*
X83473182Y-122462457D01*
X83473182Y-122462457D02*
X83425563Y-122557695D01*
X83425563Y-122557695D02*
X83377944Y-122748171D01*
X83377944Y-122748171D02*
X83377944Y-122986266D01*
X83377944Y-122986266D02*
X83425563Y-123176742D01*
X83425563Y-123176742D02*
X83473182Y-123271980D01*
X83473182Y-123271980D02*
X83520801Y-123319600D01*
X83520801Y-123319600D02*
X83616039Y-123367219D01*
X83616039Y-123367219D02*
X83711277Y-123367219D01*
X83711277Y-123367219D02*
X83806515Y-123319600D01*
X83806515Y-123319600D02*
X83854134Y-123271980D01*
X83854134Y-123271980D02*
X83901753Y-123176742D01*
X83901753Y-123176742D02*
X83949372Y-122986266D01*
X83949372Y-122986266D02*
X83949372Y-122748171D01*
X83949372Y-122748171D02*
X83901753Y-122557695D01*
X83901753Y-122557695D02*
X83854134Y-122462457D01*
X83854134Y-122462457D02*
X83806515Y-122414838D01*
X83806515Y-122414838D02*
X83711277Y-122367219D01*
X82996991Y-122462457D02*
X82949372Y-122414838D01*
X82949372Y-122414838D02*
X82854134Y-122367219D01*
X82854134Y-122367219D02*
X82616039Y-122367219D01*
X82616039Y-122367219D02*
X82520801Y-122414838D01*
X82520801Y-122414838D02*
X82473182Y-122462457D01*
X82473182Y-122462457D02*
X82425563Y-122557695D01*
X82425563Y-122557695D02*
X82425563Y-122652933D01*
X82425563Y-122652933D02*
X82473182Y-122795790D01*
X82473182Y-122795790D02*
X83044610Y-123367219D01*
X83044610Y-123367219D02*
X82425563Y-123367219D01*
X81568420Y-122367219D02*
X81758896Y-122367219D01*
X81758896Y-122367219D02*
X81854134Y-122414838D01*
X81854134Y-122414838D02*
X81901753Y-122462457D01*
X81901753Y-122462457D02*
X81996991Y-122605314D01*
X81996991Y-122605314D02*
X82044610Y-122795790D01*
X82044610Y-122795790D02*
X82044610Y-123176742D01*
X82044610Y-123176742D02*
X81996991Y-123271980D01*
X81996991Y-123271980D02*
X81949372Y-123319600D01*
X81949372Y-123319600D02*
X81854134Y-123367219D01*
X81854134Y-123367219D02*
X81663658Y-123367219D01*
X81663658Y-123367219D02*
X81568420Y-123319600D01*
X81568420Y-123319600D02*
X81520801Y-123271980D01*
X81520801Y-123271980D02*
X81473182Y-123176742D01*
X81473182Y-123176742D02*
X81473182Y-122938647D01*
X81473182Y-122938647D02*
X81520801Y-122843409D01*
X81520801Y-122843409D02*
X81568420Y-122795790D01*
X81568420Y-122795790D02*
X81663658Y-122748171D01*
X81663658Y-122748171D02*
X81854134Y-122748171D01*
X81854134Y-122748171D02*
X81949372Y-122795790D01*
X81949372Y-122795790D02*
X81996991Y-122843409D01*
X81996991Y-122843409D02*
X82044610Y-122938647D01*
D11*
X106082228Y-107450833D02*
X109891752Y-107450833D01*
X107986990Y-109355595D02*
X107986990Y-105546071D01*
M02*
